<svg version="1" id="Lager_1" xmlns="http://www.w3.org/2000/svg" x="0" y="0" viewBox="0 0 202 60" xml:space="preserve">
  <style type="text/css">
    
	.st0{fill:none;}
	.st1{fill:#FFFFFF;}
	.st2{fill:url(#SVGID_1_);}
	.st3{fill:url(#SVGID_2_);}
	.st4{fill:url(#SVGID_3_);}
	.st5{fill:url(#SVGID_4_);}

  </style>
  <switch>
  	<g>
      <path class="st0" d="z"/>
      <g id="Capa_x25_201">
        <path class="st1" d="M0 8.6v42.8C0 56 4 60 8.6 60h184.8c4.6 0 8.6-4 8.6-8.6V8.6c0-4.6-4-8.6-8.6-8.6H8.6C4 0 0 4 0 8.6z"/>
        <path d="M8.6 1.5h184.8c3.9 0 7.1 3.2 7.1 7.1v42.8c0 3.9-3.2 7.1-7.1 7.1H8.6c-3.9 0-7.1-3.2-7.1-7.1V8.6C1.5 4.7 4.7 1.5 8.6 1.5z"/>
        <linearGradient id="SVGID_1_" gradientUnits="userSpaceOnUse" x1="-142.49" y1="128.76" x2="-142.24" y2="127.77" gradientTransform="matrix(28.4 0 0 -30 4072.3997 3880.7)">
          <stop offset="0.01" stop-color="#0F6E8A"/>
          <stop offset="0.99" stop-color="#7DF0E3"/>
        </linearGradient>
        <path class="st2" d="M17.2 34.7V21.1c0-0.7 0.7-1.4 1.4-1.4 0.6 0 0.9 0.2 1.2 0.3l25 13.6c0.5 0.3 0.8 0.7 0.8 1.1 0 0.4-0.3 0.7-0.8 1l-25 13.6c-0.3 0.2-0.6 0.4-1.2 0.4 -0.7 0-1.4-0.7-1.4-1.5V34.7z"/>
        <linearGradient id="SVGID_2_" gradientUnits="userSpaceOnUse" x1="-140.64" y1="126.27" x2="-139.64" y2="125.57" gradientTransform="matrix(19.9 0 0 -15.1 2815.5002 1928.7998)">
          <stop offset="0.01" stop-color="#30C4BD"/>
          <stop offset="0.99" stop-color="#DBFF99"/>
        </linearGradient>
        <path class="st3" d="M33.5 34.8L18.3 19.7c0.1 0 0.2 0 0.3 0 0.6 0 0.9 0.2 1.2 0.3l18.4 10L33.5 34.8z"/>
        <linearGradient id="SVGID_3_" gradientUnits="userSpaceOnUse" x1="-135.27" y1="122.61" x2="-135.27" y2="123.71" gradientTransform="matrix(12.1 0 0 -9.4 1676.2998 1192.4001)">
          <stop offset="0.01" stop-color="#FFC478"/>
          <stop offset="0.99" stop-color="#FF8F61"/>
        </linearGradient>
        <path class="st4" d="M38.1 39.4l-4.6-4.6 4.7-4.8 6.6 3.6c0.5 0.3 0.8 0.7 0.8 1.1 0 0.4-0.3 0.7-0.8 1L38.1 39.4z"/>
        <linearGradient id="SVGID_4_" gradientUnits="userSpaceOnUse" x1="-140.34" y1="125.19" x2="-139.54" y2="126.25" gradientTransform="matrix(19.6 0 0 -14.9 2771.2998 1917.7002)">
          <stop offset="0.01" stop-color="#78339C"/>
          <stop offset="0.99" stop-color="#EB2E38"/>
        </linearGradient>
        <path class="st5" d="M18.5 49.7L18.5 49.7l15-14.9 4.6 4.6 -18.3 9.9c-0.3 0.2-0.6 0.4-1.2 0.4H18.5z"/>
        <path class="st1" d="M147.8 17.2V14c0-1.4 0-2.6-0.1-3.8h0.1c0.4 1 0.9 2.1 1.4 3.1l2.2 3.9h1.6V8.3h-1.5v3.1c0 1.5 0.1 2.6 0.2 3.8h-0.1c-0.4-0.9-0.8-2-1.4-3l-2.1-3.8h-1.8v8.8H147.8L147.8 17.2zM140.7 9.5c1.6 0 2.4 1.6 2.4 3.3 0 1.8-0.9 3.2-2.4 3.2 -1.6 0-2.5-1.4-2.5-3.2S139 9.5 140.7 9.5L140.7 9.5zM140.7 8.4c-2.5 0-4 1.8-4 4.5 0 2.5 1.4 4.3 3.9 4.3 2.4 0 4-1.6 4-4.5C144.6 10.2 143.3 8.4 140.7 8.4L140.7 8.4zM128.8 9.6c0.2 0 0.5-0.1 1-0.1 1.1 0 1.8 0.6 1.8 1.6 0 1.1-0.8 1.7-2 1.7 -0.3 0-0.6 0-0.8-0.1V9.6L128.8 9.6zM127.4 17.2h1.4v-3.3c0.2 0.1 0.5 0.1 0.8 0.1 1.2 0 2.1-0.3 2.7-0.9 0.5-0.5 0.7-1.2 0.7-2.1 0-0.8-0.3-1.5-0.8-2 -0.5-0.4-1.3-0.6-2.5-0.6 -1.1 0-1.8 0-2.3 0.1V17.2L127.4 17.2zM121.7 9.6c0.1 0 0.5-0.1 0.9-0.1 1.1 0 1.8 0.6 1.8 1.6 0 1.1-0.7 1.7-1.9 1.7 -0.4 0-0.6 0-0.8-0.1V9.6L121.7 9.6zM120.2 17.2h1.5v-3.3c0.2 0.1 0.5 0.1 0.8 0.1 1.1 0 2.1-0.3 2.7-0.9 0.4-0.5 0.7-1.2 0.7-2.1 0-0.8-0.3-1.5-0.8-2 -0.5-0.4-1.4-0.6-2.6-0.6 -1 0-1.7 0-2.3 0.1V17.2L120.2 17.2zM114 13.5l0.7-2.2c0.1-0.6 0.2-1.2 0.4-1.8l0 0c0.1 0.6 0.3 1.2 0.4 1.8l0.7 2.2H114L114 13.5zM116.5 14.7l0.8 2.5h1.7l-2.8-8.8h-2.1l-2.7 8.8h1.6l0.7-2.5H116.5L116.5 14.7zM102 9.6c0.2 0 0.6-0.1 1.1-0.1 2 0 3.1 1.2 3.1 3.1 0 2.3-1.3 3.4-3.3 3.4 -0.4 0-0.7 0-0.9 0V9.6L102 9.6zM100.5 17.1c0.5 0.1 1.1 0.1 2 0.1 1.7 0 3.1-0.4 4-1.1 0.7-0.8 1.1-1.9 1.1-3.5 0-1.5-0.4-2.6-1.1-3.3 -0.8-0.6-1.9-0.9-3.6-0.9 -0.9 0-1.7 0-2.4 0.1V17.1L100.5 17.1zM97.1 8.4v8.8h1.4V8.4H97.1L97.1 8.4zM91.4 9.5c1.6 0 2.5 1.6 2.5 3.3 0 1.8-0.9 3.2-2.5 3.2s-2.5-1.4-2.5-3.2S89.8 9.5 91.4 9.5L91.4 9.5zM91.4 8.4c-2.5 0-3.9 1.8-3.9 4.5 0 2.5 1.3 4.3 3.8 4.3s4-1.6 4-4.5C95.3 10.2 94 8.4 91.4 8.4L91.4 8.4zM82 9.6c0.2 0 0.5-0.1 1-0.1 1.1 0 1.8 0.5 1.8 1.5s-0.7 1.6-1.8 1.6h-1V9.6L82 9.6zM80.6 17.2H82v-3.5h0.8c1 0.1 1.4 0.4 1.6 1.5 0.3 1.1 0.5 1.7 0.6 2h1.5c-0.2-0.3-0.4-1.3-0.6-2.3 -0.2-0.9-0.6-1.5-1.1-1.7l0 0c0.7-0.3 1.4-1.1 1.4-2.3 0-0.8-0.2-1.5-0.7-1.9s-1.4-0.6-2.6-0.6c-1 0-1.8 0-2.3 0.1V17.2L80.6 17.2zM73.1 9.6c0.3 0 0.6-0.1 1.1-0.1 2.1 0 3.2 1.2 3.2 3.1 0 2.3-1.3 3.4-3.4 3.4 -0.3 0-0.6 0-0.9 0V9.6L73.1 9.6zM71.7 17.1c0.5 0.1 1.1 0.1 2 0.1 1.7 0 3.1-0.4 3.9-1.1 0.8-0.8 1.2-1.9 1.2-3.5 0-1.5-0.4-2.6-1.2-3.3 -0.7-0.6-1.9-0.9-3.5-0.9 -1 0-1.8 0-2.4 0.1V17.1L71.7 17.1zM64.5 17.2V14c0-1.4 0-2.6-0.1-3.8h0.1c0.4 1 0.9 2.1 1.5 3.1l2.1 3.9h1.6V8.3h-1.4v3.1c0 1.5 0 2.6 0.1 3.8l0 0c-0.4-0.9-0.9-2-1.4-3l-2.1-3.8h-1.8v8.8H64.5L64.5 17.2zM56.8 13.5l0.7-2.2c0.2-0.6 0.3-1.2 0.4-1.8l0 0c0.2 0.6 0.3 1.2 0.5 1.8l0.7 2.2H56.8L56.8 13.5zM59.3 14.7l0.8 2.5h1.7L59 8.4h-2l-2.8 8.8h1.6l0.8-2.5H59.3L59.3 14.7z"/>
        <path class="st1" d="M105.9 48.5c-0.7-0.6-1.3-1.7-1.7-2.4l2.5-1.1c0.2 0.4 0.4 0.8 0.8 1.2 0.7 0.7 1.6 1.2 2.6 1.2s2.2-0.4 2.7-1.2c0.6-0.8 0.8-1.7 0.8-2.7v-1c-1.9 2.4-5.9 2-8.1-0.4 -2.4-2.6-2.4-6.8 0.1-9.4 2.3-2.3 5.9-2.6 8-0.4l0 0v-1.1h2.8v12c0 3.1-1.2 4.8-2.6 5.8 -1 0.7-2.4 1.1-3.7 1.1C108.5 50.1 107 49.5 105.9 48.5zM74.7 37.5c0-3.2 2.4-6.7 6.6-6.7 4.2 0 6.6 3.5 6.6 6.7 0 3.1-2.4 6.6-6.6 6.6C77.1 44.1 74.7 40.6 74.7 37.5zM89 37.5c0-3.2 2.5-6.7 6.7-6.7 4.2 0 6.6 3.5 6.6 6.7 0 3.1-2.4 6.6-6.6 6.6C91.5 44.1 89 40.6 89 37.5zM56.5 40.9c-4-4-3.9-10.4 0.1-14.4 2-2 4.7-3 7.3-3 2.6 0 5.1 0.9 7.1 2.8l-2 2c-2.9-2.8-7.5-2.7-10.3 0.2s-2.9 7.6 0 10.5c2.8 2.9 7.6 3.1 10.4 0.2 1-1 1.3-2.3 1.5-3.6h-6.7v-2.8h9.5c0.1 0.7 0.1 1.5 0.1 2.2 0 2.3-1 4.8-2.6 6.3 -1.7 1.9-4.2 2.8-6.9 2.8C61.3 44.1 58.6 43 56.5 40.9zM124.9 42.1c-2.3-2.6-2.3-6.8 0-9.4 2.4-2.6 6.4-2.6 8.7 0 0.8 0.8 1.3 1.9 1.7 3.1l-8.8 3.6c0.5 1.1 1.5 2.1 3.1 2.1 1.4 0 2.3-0.5 3.3-1.9l2.3 1.6 0 0c-0.2 0.3-0.6 0.7-0.8 0.9C132 44.7 127.3 44.7 124.9 42.1zM118.5 43.7V24.1h2.9v19.6H118.5zM85 37.5c0-2-1.4-4.1-3.7-4.1 -2.3 0-3.7 2.1-3.7 4.1 0 1.9 1.4 4 3.7 4C83.6 41.5 85 39.4 85 37.5zM99.4 37.5c0-2-1.4-4.1-3.7-4.1 -2.4 0-3.7 2.1-3.7 4.1 0 1.9 1.3 4 3.7 4C98 41.5 99.4 39.4 99.4 37.5zM113.6 38.7c0.1-0.1 0.1-0.3 0.2-0.5v-0.1c0-0.2 0-0.4 0-0.7 0-0.2 0-0.4 0-0.6 0-0.1-0.1-0.1-0.1-0.1 0-0.2 0-0.4-0.1-0.6 -0.5-1.6-1.8-2.7-3.4-2.6 -2 0-3.6 1.8-3.6 4 0.1 2.2 1.7 4 3.7 3.9C111.8 41.4 113.1 40.3 113.6 38.7zM126 37.2l5.9-2.5c-0.6-1-1.6-1.3-2.4-1.3C127.2 33.4 125.7 35.9 126 37.2zM152.2 30.5c0-1.7-1.3-3-3.3-3h-3.6l0 0v6.1h3.8C150.8 33.6 152.2 32.2 152.2 30.5zM172.3 38.3c-0.7-0.5-1.8-0.8-2.8-0.8 -2.1 0-3.3 1.1-3.3 2.3 0 1.3 1.2 1.9 2.4 1.9C170.3 41.7 172.3 40.3 172.3 38.3zM157.6 43.9V24.6h3v19.3H157.6zM142.4 43.9V24.6h6.2c3.8 0 6.6 2.6 6.6 5.8 0 3.3-2.7 5.9-6 5.9h-3.9v7.6H142.4zM164.5 43c-0.9-0.8-1.3-2.1-1.3-3.2 -0.1-1.1 0.3-2.1 1-2.9 1.2-1.3 3-1.8 4.9-1.8 1.3 0 2.4 0.2 3.2 0.7 0-2.1-1.7-2.9-3.1-2.9 -1.3 0-2.5 0.7-2.9 1.8l-2.7-1c0.5-1.3 2-3.5 5.5-3.5 1.8 0 3.5 0.6 4.6 1.8 1.1 1.1 1.5 2.6 1.5 4.6v7.3h-2.9v-1.3c-0.4 0.5-1 1-1.6 1.3 -0.8 0.3-1.7 0.5-2.5 0.5C166.9 44.4 165.4 43.9 164.5 43zM179.1 49.7l3-7 -5.3-12.1h3l3.7 8.6 3.7-8.6h3l-8.1 19.1H179.1z"/>
      </g>
      <path class="st0" d="z"/>
      </g>
  </switch>
</svg>
