<?xml version="1.0" encoding="UTF-8" standalone="no"?>
<svg
   xmlns:dc="http://purl.org/dc/elements/1.1/"
   xmlns:cc="http://creativecommons.org/ns#"
   xmlns:rdf="http://www.w3.org/1999/02/22-rdf-syntax-ns#"
   xmlns:svg="http://www.w3.org/2000/svg"
   xmlns="http://www.w3.org/2000/svg"
   id="svg8"
   version="1.1"
   viewBox="0 0 26.458333 42.333332"
   height="160"
   width="100">
  <defs
     id="defs2" />
  <metadata
     id="metadata5">
    <rdf:RDF>
      <cc:Work
         rdf:about="">
        <dc:format>image/svg+xml</dc:format>
        <dc:type
           rdf:resource="http://purl.org/dc/dcmitype/StillImage" />
        <dc:title></dc:title>
      </cc:Work>
    </rdf:RDF>
  </metadata>
  <g
     transform="translate(0,-254.66667)"
     id="layer1">
    <g
       id="g4899">
      <rect
         style="fill:#278406;stroke-width:0.01653646"
         y="-26.458336"
         x="254.66667"
         width="42.333336"
         height="26.458336"
         id="rect815"
         transform="rotate(90)" />
      <rect
         id="rect817"
         height="25.653011"
         width="41.644321"
         y="-26.055674"
         x="255.01118"
         style="fill:#4d8200;stroke-width:0.01653646"
         transform="rotate(90)" />
      <rect
         id="rect819"
         height="25.653011"
         width="1.1408007"
         y="-26.055674"
         x="255.01118"
         style="fill:#1a6f05;stroke-width:0.01653646"
         transform="rotate(90)" />
      <rect
         id="rect821"
         height="25.653011"
         width="1.1408007"
         y="-26.055674"
         x="256.16058"
         style="fill:#558907;stroke-width:0.01653646"
         transform="rotate(90)" />
      <rect
         id="rect823"
         height="25.653011"
         width="1.1408007"
         y="-26.055674"
         x="257.30997"
         style="fill:#1a6f05;stroke-width:0.01653646"
         transform="rotate(90)" />
      <rect
         id="rect825"
         height="25.653011"
         width="1.1408007"
         y="-26.055674"
         x="258.45935"
         style="fill:#558907;stroke-width:0.01653646"
         transform="rotate(90)" />
      <rect
         id="rect827"
         height="25.653011"
         width="1.1408007"
         y="-26.055674"
         x="259.60873"
         style="fill:#1a6f05;stroke-width:0.01653646"
         transform="rotate(90)" />
      <rect
         id="rect829"
         height="25.653011"
         width="1.1408007"
         y="-26.055674"
         x="260.75815"
         style="fill:#558907;stroke-width:0.01653646"
         transform="rotate(90)" />
      <rect
         id="rect831"
         height="25.653011"
         width="1.1408007"
         y="-26.055674"
         x="261.90753"
         style="fill:#1a6f05;stroke-width:0.01653646"
         transform="rotate(90)" />
      <rect
         id="rect833"
         height="25.653011"
         width="1.1408007"
         y="-26.055674"
         x="263.05692"
         style="fill:#558907;stroke-width:0.01653646"
         transform="rotate(90)" />
      <rect
         id="rect835"
         height="25.653011"
         width="1.1408007"
         y="-26.055674"
         x="264.2063"
         style="fill:#1a6f05;stroke-width:0.01653646"
         transform="rotate(90)" />
      <rect
         id="rect837"
         height="25.653011"
         width="1.1408007"
         y="-26.055674"
         x="265.35571"
         style="fill:#558907;stroke-width:0.01653646"
         transform="rotate(90)" />
      <rect
         id="rect839"
         height="25.653011"
         width="1.1408007"
         y="-26.055674"
         x="266.5051"
         style="fill:#1a6f05;stroke-width:0.01653646"
         transform="rotate(90)" />
      <rect
         id="rect841"
         height="25.653011"
         width="1.1408007"
         y="-26.055674"
         x="267.65448"
         style="fill:#558907;stroke-width:0.01653646"
         transform="rotate(90)" />
      <rect
         id="rect843"
         height="25.653011"
         width="1.1408007"
         y="-26.055674"
         x="268.80386"
         style="fill:#1a6f05;stroke-width:0.01653646"
         transform="rotate(90)" />
      <rect
         id="rect845"
         height="25.653011"
         width="1.1408007"
         y="-26.055674"
         x="269.95328"
         style="fill:#558907;stroke-width:0.01653646"
         transform="rotate(90)" />
      <rect
         id="rect847"
         height="25.653011"
         width="1.1408007"
         y="-26.055674"
         x="271.10266"
         style="fill:#1a6f05;stroke-width:0.01653646"
         transform="rotate(90)" />
      <rect
         id="rect849"
         height="25.653011"
         width="1.1408007"
         y="-26.055674"
         x="272.25204"
         style="fill:#558907;stroke-width:0.01653646"
         transform="rotate(90)" />
      <rect
         id="rect851"
         height="25.653011"
         width="1.1408007"
         y="-26.055674"
         x="273.40143"
         style="fill:#1a6f05;stroke-width:0.01653646"
         transform="rotate(90)" />
      <rect
         id="rect853"
         height="25.653011"
         width="1.1408007"
         y="-26.055674"
         x="274.55084"
         style="fill:#558907;stroke-width:0.01653646"
         transform="rotate(90)" />
      <rect
         id="rect855"
         height="25.653011"
         width="1.1408007"
         y="-26.055674"
         x="275.70023"
         style="fill:#1a6f05;stroke-width:0.01653646"
         transform="rotate(90)" />
      <rect
         id="rect857"
         height="25.653011"
         width="1.1408007"
         y="-26.055674"
         x="276.84961"
         style="fill:#558907;stroke-width:0.01653646"
         transform="rotate(90)" />
      <rect
         id="rect859"
         height="25.653011"
         width="1.1408007"
         y="-26.055674"
         x="277.99899"
         style="fill:#1a6f05;stroke-width:0.01653646"
         transform="rotate(90)" />
      <rect
         id="rect861"
         height="25.653011"
         width="1.1408007"
         y="-26.055674"
         x="279.14841"
         style="fill:#558907;stroke-width:0.01653646"
         transform="rotate(90)" />
      <rect
         id="rect863"
         height="25.653011"
         width="1.1408007"
         y="-26.055674"
         x="280.29779"
         style="fill:#1a6f05;stroke-width:0.01653646"
         transform="rotate(90)" />
      <rect
         id="rect865"
         height="25.653011"
         width="1.1408007"
         y="-26.055674"
         x="281.44717"
         style="fill:#558907;stroke-width:0.01653646"
         transform="rotate(90)" />
      <rect
         id="rect867"
         height="25.653011"
         width="1.1408007"
         y="-26.055674"
         x="282.59659"
         style="fill:#1a6f05;stroke-width:0.01653646"
         transform="rotate(90)" />
      <rect
         id="rect869"
         height="25.653011"
         width="1.1408007"
         y="-26.055674"
         x="283.74597"
         style="fill:#558907;stroke-width:0.01653646"
         transform="rotate(90)" />
      <rect
         id="rect871"
         height="25.653011"
         width="1.1408007"
         y="-26.055674"
         x="284.89536"
         style="fill:#1a6f05;stroke-width:0.01653646"
         transform="rotate(90)" />
      <rect
         id="rect873"
         height="25.653011"
         width="1.1408007"
         y="-26.055674"
         x="286.04474"
         style="fill:#558907;stroke-width:0.01653646"
         transform="rotate(90)" />
      <rect
         id="rect875"
         height="25.653011"
         width="1.1408007"
         y="-26.055674"
         x="287.19415"
         style="fill:#1a6f05;stroke-width:0.01653646"
         transform="rotate(90)" />
      <rect
         id="rect877"
         height="25.653011"
         width="1.1408007"
         y="-26.055674"
         x="288.34354"
         style="fill:#558907;stroke-width:0.01653646"
         transform="rotate(90)" />
      <rect
         id="rect879"
         height="25.653011"
         width="1.1408007"
         y="-26.055674"
         x="289.49292"
         style="fill:#1a6f05;stroke-width:0.01653646"
         transform="rotate(90)" />
      <rect
         id="rect881"
         height="25.653011"
         width="1.1408007"
         y="-26.055674"
         x="290.6423"
         style="fill:#558907;stroke-width:0.01653646"
         transform="rotate(90)" />
      <rect
         id="rect883"
         height="25.653011"
         width="1.1408007"
         y="-26.055674"
         x="291.79172"
         style="fill:#1a6f05;stroke-width:0.01653646"
         transform="rotate(90)" />
      <rect
         id="rect885"
         height="25.653011"
         width="1.1408007"
         y="-26.055674"
         x="292.9411"
         style="fill:#558907;stroke-width:0.01653646"
         transform="rotate(90)" />
      <rect
         id="rect887"
         height="25.653011"
         width="1.1408007"
         y="-26.055674"
         x="294.09048"
         style="fill:#1a6f05;stroke-width:0.01653646"
         transform="rotate(90)" />
      <rect
         id="rect889"
         height="25.653011"
         width="1.3511528"
         y="-26.055674"
         x="295.23987"
         style="fill:#558907;stroke-width:0.01653646"
         transform="rotate(90)" />
      <rect
         style="fill:none;stroke:#ffffff;stroke-width:0.09358148;stroke-miterlimit:10"
         x="255.09662"
         y="-26.028389"
         stroke-miterlimit="10"
         width="20.736721"
         height="25.532293"
         id="rect893"
         transform="rotate(90)" />
      <path
         style="fill:none;stroke:#ffffff;stroke-width:0.13229167;stroke-miterlimit:10"
         stroke-miterlimit="10"
         d="M 0.4960938,275.83334 H 26.028388 Z"
         id="path895" />
      <polyline
         style="fill:none;stroke:#ffffff;stroke-width:8;stroke-miterlimit:10"
         stroke-miterlimit="10"
         points="26,1271 461,1271 461,328 26,328    "
         id="polyline897"
         transform="matrix(0,0.01653646,-0.01653646,0,26.458336,254.66667)" />
      <polyline
         style="fill:none;stroke:#ffffff;stroke-width:8;stroke-miterlimit:10"
         stroke-miterlimit="10"
         points="26,559 181,559 181,1039 26,1039    "
         id="polyline899"
         transform="matrix(0,0.01653646,-0.01653646,0,26.458336,254.66667)" />
      <path
         style="fill:none;stroke:#ffffff;stroke-width:0.13229167;stroke-miterlimit:10"
         stroke-miterlimit="10"
         d="m 16.338022,262.28998 c -0.347265,2.87734 -5.093229,3.83646 -6.267318,0"
         id="path901" />
      <path
         style="fill:none;stroke:#ffffff;stroke-width:0.13512437;stroke-miterlimit:10"
         stroke-miterlimit="10"
         d="m 17.148309,275.8168 c 0,-2.17818 -1.765765,-3.94394 -3.943946,-3.94394 -2.178181,0 -3.9439454,1.76576 -3.9439454,3.94394"
         id="path903" />
      <path
         style="fill:#ffffff;stroke:#ffffff;stroke-width:0.03307292;stroke-miterlimit:10"
         stroke-miterlimit="10"
         d="m 13.526824,275.83334 c 0,-0.16439 -0.133265,-0.29766 -0.297656,-0.29766 -0.164391,0 -0.297656,0.13327 -0.297656,0.29766"
         id="path905" />
      <path
         style="fill:none;stroke:#ffffff;stroke-width:0.09358148;stroke-miterlimit:10"
         stroke-miterlimit="10"
         d="m 1.2030275,255.09248 c -0.059063,0.39078 -0.29036043,0.60212 -0.71520193,0.61185"
         id="path907" />
      <path
         style="fill:none;stroke:#ffffff;stroke-width:0.09358148;stroke-miterlimit:10"
         stroke-miterlimit="10"
         d="m 25.369686,255.0911 c 0.02422,0.35926 0.233538,0.57745 0.658702,0.63115"
         id="path909" />
      <circle
         style="fill:#ffffff;stroke:#ffffff;stroke-width:0.03307292;stroke-miterlimit:10"
         stroke-miterlimit="10"
         cx="259.47052"
         cy="-13.258107"
         r="0.31419274"
         id="circle911"
         transform="rotate(90)" />
      <rect
         style="fill:none;stroke:#ffffff;stroke-width:0.09358148;stroke-miterlimit:10"
         x="275.87744"
         y="-26.028389"
         stroke-miterlimit="10"
         width="20.736721"
         height="25.532293"
         id="rect915"
         transform="rotate(90)" />
      <path
         style="fill:none;stroke:#ffffff;stroke-width:0.13229167;stroke-miterlimit:10"
         stroke-miterlimit="10"
         d="M 0.4960938,275.87743 H 26.028388 Z"
         id="path917" />
      <polyline
         style="fill:none;stroke:#ffffff;stroke-width:8;stroke-miterlimit:10"
         stroke-miterlimit="10"
         points="2536.6667,1271 2101.6667,1271      2101.6667,328 2536.6667,328    "
         id="polyline919"
         transform="matrix(0,0.01653646,-0.01653646,0,26.458336,254.66667)" />
      <polyline
         style="fill:none;stroke:#ffffff;stroke-width:8;stroke-miterlimit:10"
         stroke-miterlimit="10"
         points="2536.6667,559 2381.6667,559      2381.6667,1039 2536.6667,1039    "
         id="polyline921"
         transform="matrix(0,0.01653646,-0.01653646,0,26.458336,254.66667)" />
      <path
         style="fill:none;stroke:#ffffff;stroke-width:0.13229167;stroke-miterlimit:10"
         stroke-miterlimit="10"
         d="m 16.338022,289.4208 c -0.347265,-2.87735 -5.093229,-3.83646 -6.267318,0"
         id="path923" />
      <path
         style="fill:none;stroke:#ffffff;stroke-width:0.13512437;stroke-miterlimit:10"
         stroke-miterlimit="10"
         d="m 17.148309,275.89397 c 0,2.17818 -1.765765,3.94395 -3.943946,3.94395 -2.178181,0 -3.9439454,-1.76577 -3.9439454,-3.94395"
         id="path925" />
      <path
         style="fill:#ffffff;stroke:#ffffff;stroke-width:0.03307292;stroke-miterlimit:10"
         stroke-miterlimit="10"
         d="m 13.526824,275.87743 c 0,0.1644 -0.133265,0.29766 -0.297656,0.29766 -0.164391,0 -0.297656,-0.13326 -0.297656,-0.29766"
         id="path927" />
      <path
         style="fill:none;stroke:#ffffff;stroke-width:0.09358148;stroke-miterlimit:10"
         stroke-miterlimit="10"
         d="m 1.2030275,296.61829 c -0.059063,-0.39077 -0.29036374,-0.60212 -0.71520193,-0.61185"
         id="path929" />
      <path
         style="fill:none;stroke:#ffffff;stroke-width:0.09358148;stroke-miterlimit:10"
         stroke-miterlimit="10"
         d="m 25.369686,296.61967 c 0.02422,-0.35926 0.233538,-0.57744 0.658702,-0.63114"
         id="path931" />
      <circle
         style="fill:#ffffff;stroke:#ffffff;stroke-width:0.03307292;stroke-miterlimit:10"
         stroke-miterlimit="10"
         cx="292.24026"
         cy="-13.258107"
         r="0.31419274"
         id="circle933"
         transform="rotate(90)" />
    </g>
  </g>
</svg>
